<?xml version="1.0" encoding="utf-8"?>
<!-- Generator: Adobe Illustrator 13.0.0, SVG Export Plug-In . SVG Version: 6.00 Build 14948)  -->
<!DOCTYPE svg PUBLIC "-//W3C//DTD SVG 1.1//EN" "http://www.w3.org/Graphics/SVG/1.1/DTD/svg11.dtd">
<svg version="1.1" id="Calque_1" xmlns="http://www.w3.org/2000/svg" xmlns:xlink="http://www.w3.org/1999/xlink" x="0px" y="0px"
	 width="139px" height="46px" viewBox="0 0 139 46" enable-background="new 0 0 139 46" xml:space="preserve">
<g>
	<defs>
		<rect id="SVGID_1_" x="-11.75" y="-9.25" width="157" height="65"/>
	</defs>
	<clipPath id="SVGID_2_">
		<use xlink:href="#SVGID_1_"  overflow="visible"/>
	</clipPath>
	<path clip-path="url(#SVGID_2_)" fill="#FFFFFF" stroke="#FFFFFF" stroke-width="0.5" d="M40.309,10.34
		c0.889,1.056,2.437,1.679,3.35,2.74c-0.653-3.135-3.073-5.695-5.934-6.305C39.12,7.826,39.419,9.281,40.309,10.34 M5.916,18.285
		c1.971-4.289,4.912-3.381,6.157-7.467c-0.702,1.254-3.916,1.781-5.407,4.994c0.762-1.91,0.379-4.828,1.668-6.404
		C4.482,12.248,6.123,16.843,5.916,18.285 M9.484,28.57c0.355,1.674-0.684,4.082,0.967,6.387c-1.711-1.918-5.332-2.406-6.813-5.322
		c1.848,7.126,6.658,5.658,8.83,7.207C10.682,34.277,12.143,32.57,9.484,28.57 M8.93,33.047c-1.064-3.984,0.828-5.357-0.611-9.18
		c-0.149,2.152-1.584,3.201-0.616,7.139c-1.708-3.336-4.351-4.576-5.117-6.863C2.639,30.395,7.662,31.32,8.93,33.047 M16.645,39.723
		c-1.477-2.047-0.469-3.203-4.623-6.921c0.879,1.358-0.028,3.065,2.775,5.718c-2.742-1.617-6.525-0.925-8.347-3.084
		C9.58,41.426,15.085,38.977,16.645,39.723 M36.751,38.52c2.801-2.652,1.895-4.359,2.776-5.718
		c-4.157,3.718-3.147,4.874-4.625,6.921c1.56-0.746,7.064,1.703,10.195-4.287C43.275,37.595,39.493,36.902,36.751,38.52
		 M41.096,34.957c1.65-2.305,0.613-4.713,0.967-6.387c-2.658,4-1.197,5.707-2.985,8.271c2.174-1.549,6.985-0.081,8.831-7.207
		C46.428,32.551,42.809,33.039,41.096,34.957 M34.458,40.006c-1.625-0.434-3.297-0.648-4.543-0.68
		c-1.552-0.039-2.941,0.254-4.142,0.703c-1.201-0.449-2.59-0.742-4.143-0.703c-1.246,0.031-2.918,0.246-4.543,0.68
		c-2.498,0.666-4.66,1.18-6.541,0.229c1.803,1.602,3.91,2.174,6.953,1.846c2.534-0.275,4.577-1.539,6.965-1.523
		c0.031,0,0.063,0.002,0.094,0.004c-2.518,1.27-3.938,3.061-3.938,3.061l1.153,0.154c0,0,1.213-2.436,4-3.068
		c2.787,0.633,4,3.068,4,3.068l1.152-0.154c0,0-1.42-1.791-3.937-3.061c0.031-0.002,0.062-0.004,0.093-0.004
		c2.389-0.016,4.432,1.248,6.965,1.523c3.045,0.328,5.151-0.244,6.955-1.846C39.12,41.186,36.957,40.672,34.458,40.006
		 M8.491,19.551c-1.032,1.976-2.631,2.429-2.461,6.511c-0.866-3.627-2.93-4.974-2.903-7.293c-1.437,6.045,2.401,6.766,3.385,9.299
		C6.368,24.436,8.686,23.705,8.491,19.551 M9.93,14.881c-0.359,0.502-0.611,0.714-1.568,1.504c-1.305,1.074-2.346,2.486-2.785,4.546
		c0.099-2.216-1.27-5.404-0.36-7.724c-3.527,4.978,0.201,7.963,0.334,9.763C6.462,19.502,8.563,19.474,9.93,14.881 M45.971,20.931
		c-0.437-2.06-1.48-3.472-2.785-4.546c-0.955-0.79-1.209-1.002-1.568-1.504c1.367,4.593,3.468,4.621,4.378,8.089
		c0.133-1.8,3.862-4.785,0.334-9.763C47.241,15.527,45.871,18.715,45.971,20.931 M48.962,24.143
		c-0.765,2.287-3.41,3.527-5.119,6.863c0.969-3.938-0.465-4.986-0.615-7.139c-1.438,3.822,0.455,5.195-0.611,9.18
		C43.885,31.32,48.909,30.395,48.962,24.143 M43.059,19.551c-0.197,4.154,2.121,4.884,1.977,8.517
		c0.986-2.533,4.822-3.254,3.386-9.299c0.026,2.319-2.039,3.666-2.902,7.293C45.689,21.98,44.09,21.527,43.059,19.551 M11.239,10.34
		c0.888-1.059,1.191-2.514,2.584-3.565c-2.862,0.61-5.282,3.17-5.932,6.305C8.801,12.019,10.352,11.396,11.239,10.34 M39.475,10.818
		c1.244,4.086,4.187,3.178,6.156,7.467c-0.207-1.442,1.434-6.037-2.416-8.877c1.287,1.576,0.906,4.494,1.668,6.404
		C43.391,12.599,40.176,12.072,39.475,10.818 M29.484,13.138c-0.739-0.304-1.524-0.523-2.342-0.638
		c-0.004,0.174-0.008,0.349-0.012,0.525c0.754,0.11,1.479,0.313,2.162,0.596C29.385,13.476,29.45,13.316,29.484,13.138
		 M28.889,8.082l0.158-0.143l-0.299-0.127L27.96,7.797l-0.205,0.142L27.292,7.9l-0.006,0.113c0.295,0.02,0.584,0.047,0.811,0.086
		l0.383-0.035L28.889,8.082z M27.375,25.041c0-0.135-0.177-0.266-0.439-0.389l-0.047-0.002c-0.004,0.109-0.012,0.643-0.018,0.901
		C27.193,25.408,27.375,25.252,27.375,25.041 M18.262,15.045c0.018-0.108,0.039-0.194,0.066-0.289
		c-0.097,0.025-0.21,0.035-0.322,0.033L18.262,15.045z M25.791,38.184c8.848,0,16.045-7.199,16.045-16.047
		c0-8.298-6.332-15.144-14.42-15.962c-0.005,0.031-0.013,0.062-0.019,0.091c-0.031,0.157-0.061,0.297-0.084,0.422
		c3.621,0.354,6.881,1.957,9.344,4.373l-1.772,1.772l0.068-0.313l-0.232-0.101l-0.318-0.02l0.068-0.203l-0.215-0.725l-0.441-0.484
		l-1.383-0.73l-0.119,0.127l-0.25,0.074c0.474,0.701,0.732,1.508,0.732,2.326c0,0.105-0.004,0.211-0.008,0.314l0.686,0.86
		l-0.322,0.076l0.211,0.32l-0.604,0.604l-0.244-0.463c-0.115,0.324-0.268,0.625-0.457,0.904c0.045,0.041,0.092,0.082,0.135,0.125
		l-1.862,1.863c-0.113-0.107-0.232-0.21-0.353-0.31c-0.178,0.084-0.361,0.16-0.545,0.232c0.053,0.039,0.107,0.08,0.158,0.123
		l-0.094,0.094l-0.218,0.123l-0.082,0.219l-0.135-0.137l-0.393,0.131l0.106,0.174l0.273-0.074l0.176,0.013l0.014-0.093l0.136-0.069
		l0.041-0.082l0.245-0.068l0.191-0.01c0.037,0.035,0.074,0.068,0.111,0.104l-0.74,0.738l-0.055-0.078l-0.771,0.127l-0.172,0.172
		l-0.17,0.019l0.479-0.459l-0.172-0.086l-0.446,0.6l0.131-0.014l-0.008,0.221l0.163,0.062l0.033,0.237l-0.268-0.053l-0.283,0.051
		l-0.676-0.35c0,0-0.039,1.822-0.058,2.738c1.601,0.538,3.302,1.317,3.302,3.36c0,0.895-0.388,1.621-1.152,2.156l0.006,0.002
		l-0.035,0.023l-0.004-0.003c-0.018,0.011-0.033,0.024-0.051,0.036c-0.648,0.428-1.48,0.656-2.203,0.883
		c-0.004,0-0.02,1.428-0.02,1.428c1.147,0.572,2.541,1.402,2.412,3.777c-0.015,0.586-0.244,0.746-0.439,0.799v0.002
		c-0.672,0.166-1.365,0.275-2.074,0.325c-0.004,0.187-0.008,0.362-0.01,0.526c3.092-0.213,5.887-1.52,8-3.533l1.863,1.863
		c-2.791,2.684-6.582,4.338-10.752,4.338c-4.148,0-7.92-1.637-10.707-4.295l1.864-1.865c2.091,1.977,4.843,3.262,7.886,3.486
		c-0.004-0.16-0.006-0.336-0.009-0.523c-2.895-0.225-5.514-1.451-7.51-3.331l0.498-0.497l0.683,0.078l0.364-0.391l0.951,0.031
		l0.142-0.33l-0.033-0.139c1.379,1.047,3.045,1.736,4.856,1.924c-0.004-0.203-0.006-0.379-0.01-0.523
		c-2-0.223-3.811-1.088-5.217-2.387l1.865-1.865c0.452,0.404,0.961,0.748,1.512,1.015c0.041-0.177,0.104-0.341,0.188-0.489
		c-0.483-0.238-0.93-0.539-1.33-0.893l1.869-1.871c0.297,0.24,0.634,0.428,0.998,0.557c-0.002-0.186-0.006-0.379-0.01-0.563
		c-0.221-0.096-0.43-0.217-0.617-0.363l0.527-0.529c-0.185-0.056-0.373-0.113-0.558-0.178l-0.352,0.354
		c-0.18-0.199-0.33-0.422-0.449-0.664c-0.321-0.143-0.633-0.303-0.922-0.494c-1.149-0.754-1.731-1.821-1.731-3.168
		c0-1.028,0.288-1.807,0.754-2.41l-1.859-1.86c1.34-1.279,3.062-2.16,4.978-2.449c-0.005-0.182-0.007-0.357-0.011-0.525
		c-2.055,0.296-3.903,1.236-5.334,2.605l-0.315-0.312c-0.072,0.125-0.154,0.285-0.25,0.486l0.198,0.197
		c-1.602,1.705-2.596,3.985-2.637,6.492h-2.639c0.043-3.234,1.332-6.175,3.41-8.357l0.838,0.838c0.039,0,0.078,0,0.119-0.004
		c0.149-0.012,0.315-0.057,0.475-0.139l-1.064-1.064c0.562-0.543,1.177-1.035,1.835-1.465c0.051-0.178,0.102-0.332,0.129-0.389
		c0.032-0.064,0.2-0.285,0.403-0.541c-1,0.555-1.92,1.237-2.735,2.028l-1.865-1.864c2.445-2.379,5.668-3.963,9.244-4.326
		c-0.011-0.062-0.021-0.111-0.021-0.111c-0.024-0.123-0.051-0.26-0.078-0.401c-8.063,0.84-14.37,7.676-14.37,15.957
		C9.744,30.984,16.943,38.184,25.791,38.184 M29.253,27.098l-0.002-0.014l0.006,0.011C29.255,27.095,29.255,27.098,29.253,27.098
		 M37.021,11.429c2.625,2.752,4.25,6.461,4.293,10.545h-2.637c-0.025-2.021-0.519-3.933-1.377-5.631l0.024-0.046l0.181,0.095
		l0.043-0.138l-0.471-0.827l-0.558-0.773l-0.656-0.547c-0.223-0.279-0.459-0.551-0.705-0.812L37.021,11.429z M33.664,14.808
		l0.635,0.03l0.149,0.181l-0.075,0.27l0.881,0.547l0.172-0.022l1.125,1.287l0.461-0.162c0.713,1.535,1.121,3.238,1.145,5.035h-2.639
		c-0.01-0.689-0.096-1.359-0.244-2.006l0.119-0.164l0.164-0.826l-0.123-0.886l-0.318-1.022l-0.735-1.076l0.178,0.096l0.09-0.09
		l-0.59-0.403L34.02,15.73l0.59,0.844l0.336,0.691l0.236,0.686l0.076,0.461l0.123,0.775l-0.222,0.018c0,0-0.254-0.477-0.332-0.672
		l0.117-0.176l-0.225-0.322v-0.322l-0.16-0.203l-0.199,0.025c-0.073-0.133-0.147-0.266-0.225-0.395l0.141,0.075l0.039-0.039
		l-0.076-0.166l0.172-0.096l-0.079-0.098l-0.254,0.098l0.092-0.403l-0.15-0.085l-0.135,0.32c-0.289-0.432-0.609-0.84-0.959-1.219
		L33.664,14.808z M33.137,20.99l0.473-0.258l0.482-0.074l0.106-0.236l0.269-0.162l0.104-0.225l0.084-0.391
		c0.039,0.139,0.074,0.278,0.107,0.418l-0.256,0.762l-0.011,0.258l0.371-0.496c0.078,0.453,0.123,0.916,0.132,1.388h-2.312
		l-0.053-0.201l0.268-0.215l0.054-0.129l0.118-0.086l0.31-0.031l0.033-0.14L33.137,20.99z M29.971,19.177l0.236-0.054l-0.011-0.057
		l-0.235-0.158l0.08-0.496l0.282-0.283c0.177,0.201,0.341,0.414,0.49,0.636l-0.098,0.305l-0.258-0.184l-0.197,0.055l0.098,0.182
		h0.097l-0.107,0.267l-0.076-0.105L29.971,19.177z M30.98,27.934l-0.569-0.162l-0.173,0.064l-0.321-0.248l-0.302-0.109
		c0.148-0.105,0.295-0.219,0.435-0.34l0.469,0.331l0.357,0.19l0.178,0.178L30.98,27.934z M30.691,17.76l1.865-1.866
		c0.438,0.475,0.824,0.994,1.154,1.551l-0.232,0.063l0.012,0.418l0.699,0.441c0.172,0.379,0.318,0.773,0.437,1.178l-0.123,0.179
		l-0.252,0.161l-0.064,0.386l-0.172,0.098l-0.143,0.17l-0.146-0.053l-0.258-0.012l0.151-0.203l0.107-0.525l0.172-0.108l-0.504-0.482
		l-0.377,0.129l-0.084,0.353l-0.238,0.256l-0.246-0.203l-0.086-0.217l0.14-0.086l0.076,0.143l0.116-0.043l-0.049-0.236l-0.164-0.01
		l-0.012,0.096l-0.107,0.021l-0.58-0.676l-0.194-0.15l0.074-0.082l0.176-0.063l-0.162-0.062c0,0-0.205,0.047-0.23,0.047l0.117,0.146
		l-0.293-0.006C31.096,18.25,30.903,17.996,30.691,17.76 M31.641,27.688l-0.252-0.254l0.193-0.252l0.245-0.494l-0.096-0.141
		l0.162-0.365l-0.018-0.332l-0.099-0.342l-0.229-0.082l-0.084,0.193l-0.138-0.037c0.199-0.316,0.408-0.614,0.552-0.963l0.237-0.104
		l0.132-0.178l0.065,0.074l0.16-0.194l-0.129-0.159l0.119-0.033l0.215,0.086l0.408,0.012l0.246-0.129l0.643-0.17l-0.121-0.215
		l-0.041-0.26l0.346,0.153l0.129-0.076l-0.065-0.268l-0.424,0.158L33.33,23.22l-0.355-0.724h2.018
		c-0.09,2.32-1.043,4.424-2.545,5.998l-0.278-0.277l0.119-0.372l-0.214-0.813L31.641,27.688z M31.998,32.832l0.248-0.533
		l-0.097-0.236l0.365-0.32v-0.193l-0.311-0.195l0.258-0.514l0.387-0.504l-0.387-0.418h-0.291l-0.179-0.291
		c0.154-0.129,0.308-0.26,0.455-0.398l1.865,1.865C33.612,31.758,32.835,32.344,31.998,32.832 M34.321,30.369l0.205-0.23
		l-0.192-1.02l-0.136-0.055l0.082-0.172l-0.44-0.139l-0.086,0.365L33.71,29.58l-0.093,0.086l-0.803-0.805
		c1.597-1.668,2.609-3.9,2.699-6.365h2.639c-0.092,3.191-1.397,6.084-3.473,8.23L34.321,30.369z M35.049,31.094
		c2.168-2.24,3.533-5.264,3.625-8.598h2.639c-0.094,4.061-1.754,7.744-4.401,10.463L35.049,31.094z M19.178,28.539
		c-0.191-0.197-0.375-0.404-0.547-0.617l0.08-0.666l-0.279-0.641l-0.066-1.002l-0.311-0.607l0.066-0.379l-0.378-0.721l-0.329-0.164
		l0.133-0.385l-0.138-0.305l0.136-0.345h0.362l0.127-0.211h0.615l0.097,0.181l-0.115,0.625l-0.076,0.11l0.232,0.504L18.635,24
		l-0.107-0.135l-0.043,0.051l0.105,0.299l0.18,0.348l0.084-0.008l0.051-0.313l-0.088-0.115l-0.01-0.211l-0.027-0.438l0.129-0.773
		l-0.125-0.209h0.443c0.086,1.615,0.762,3.08,1.814,4.18L19.178,28.539z M17.434,23.383l-0.25,0.39h-0.426l-0.033-0.025
		c-0.074-0.408-0.119-0.826-0.135-1.252h0.795l-0.191,0.635L17.434,23.383z M18.301,21.574l0.049-0.525l0.312-0.18l0.559,0.098
		l0.084,0.101c-0.049,0.295-0.076,0.598-0.084,0.906h-0.633L18.301,21.574z M20.977,23.545l0.133-0.067l0.345,0.26l-0.15,0.121
		l0.389,0.26l-0.026-0.277l0.207-0.342l0.217,0.228l0.221,0.319l-0.399,0.088l0.18,0.361l0.279-0.146l-0.035-0.117l0.207-0.141
		l0.123-0.575c0.151,0.342,0.356,0.655,0.604,0.926l-1.863,1.863c-0.889-0.934-1.483-2.148-1.633-3.5l0.381,0.409l0.359-0.008
		L20.977,23.545z M19.066,15.849l1.865,1.866c-0.391,0.425-0.723,0.906-0.99,1.423l-0.131-0.007l-0.262,0.082l-0.09-0.008
		l-0.279,0.258l0.352-0.055l0.318-0.08c-0.02,0.039-0.037,0.08-0.057,0.121l-0.277,0.172h-0.131l-0.41,0.31l-0.395-0.033
		l-0.574,1.069l0.115,0.212l-0.312,0.344l-0.047,0.451h-1.178C16.625,19.609,17.561,17.461,19.066,15.849 M16.659,29.914
		l0.591,0.346l0.123,0.084l-0.429,0.428c-0.201-0.207-0.393-0.422-0.58-0.641L16.659,29.914z M16.068,22.496
		c0.009,0.256,0.031,0.51,0.06,0.762l-0.324,0.072l-0.066,0.328l-0.672,0.853l0.017,1.177l-0.691,0.23l-0.377,0.004
		c-0.35-1.086-0.553-2.237-0.588-3.426H16.068z M13.465,25.906l-0.156-0.029l-0.147-0.166l-0.738-0.064l0.229,0.313l-0.686-0.131
		l0.18-0.164l-0.168-0.166l-0.494,0.215l-0.176,0.328l0.066,0.75l0.569,1.363l0.275,0.428l0.156,0.057l-0.431-0.816l-0.094-0.414
		l0.096-0.104l-0.059-0.229l0.258,0.033l0.398,0.602l0.1,0.041l-0.01-0.439l0.16,0.094l0.035,0.24l0.418,0.109l0.174-0.125
		l0.061,0.043l-0.008,0.32l0.186,0.226l0.222,0.052l0.49,0.826l0.295,0.084l0.092-0.389c0.516,0.852,1.127,1.639,1.819,2.346
		l-1.864,1.865c-2.672-2.725-4.351-6.424-4.443-10.508h2.637C12.939,23.677,13.133,24.82,13.465,25.906 M14.602,11.386l1.863,1.864
		c-2.172,2.275-3.519,5.345-3.56,8.724h-2.637C10.311,17.869,11.953,14.14,14.602,11.386 M33.689,10.424l-0.162-0.256l-0.342-0.172
		l-0.27,0.205l0.344,0.182l0.387,0.279L33.689,10.424z M32.092,17.863l0.01,0.203l0.457-0.137L32.7,17.65l-0.317-0.414l0.168-0.25
		l0.426,0.303l0.08-0.063l-0.086-0.06l-0.096-0.182l0.174-0.101l-0.172-0.225l-0.398,0.201l-0.141,0.242l-0.08,0.219l0.178,0.297
		l-0.065,0.139L32.092,17.863z M13.025,29.689l0.033-0.119l-0.238-0.516l-0.282-0.104L13.025,29.689z M23.807,19.781
		c0,0.443,0.27,0.754,0.76,1.023c0,0-0.002-0.074-0.004-0.197l-0.309-0.306l0.162-0.297l0.133-0.037
		c-0.01-0.516-0.019-1.094-0.021-1.176l-0.024,0.004C24.053,19.043,23.807,19.347,23.807,19.781"/>
	<path clip-path="url(#SVGID_2_)" fill="#FDFDFE" stroke="#010102" stroke-width="0.5" d="M26.752,31.209
		c0.828,0.418,1.592,0.996,1.91,2.094c0.141-1.814-0.877-2.604-1.889-3.135C26.773,30.17,26.752,31.211,26.752,31.209"/>
	<path clip-path="url(#SVGID_2_)" fill="#FDFDFE" stroke="#010102" stroke-width="0.5" d="M32.252,12.783
		c0-1.65-1.199-3.48-4.129-4.127c-0.217-0.047-0.549-0.082-0.894-0.103c-0.008,0.248-0.02,0.818-0.02,0.818
		c-0.004,0.18-0.018,0.84-0.023,0.982c0.271,0.024,0.472,0.055,0.564,0.078c1.703,0.409,2.313,1.385,2.313,2.352
		c0,1.564-1.338,2.154-2.985,2.602c-0.178,0.046-0.361,0.093-0.545,0.14c-0.498,0.125-1.013,0.244-1.519,0.381
		c-0.182,0.049-0.364,0.102-0.541,0.156c-1.826,0.555-3.393,1.434-3.393,3.69c0,2.23,1.789,3.066,3.535,3.603
		c-0.011-0.64-0.023-1.289-0.037-1.935c-0.771-0.362-1.314-0.838-1.314-1.639c0-0.783,0.494-1.254,1.252-1.598
		c0.166-0.074,0.347-0.144,0.539-0.209c0.435-0.148,0.924-0.273,1.435-0.398c0.18-0.043,0.362-0.088,0.547-0.131
		C29.496,16.849,32.252,16.08,32.252,12.783"/>
	<path clip-path="url(#SVGID_2_)" fill="#FDFDFE" stroke="#010102" stroke-width="0.5" d="M23.414,28.527
		c0.006,0.902,0.668,1.395,1.332,1.766c-0.002-0.152-0.027-1.549-0.029-1.572c0.015-0.277,0.285-0.445,0.502-0.548
		c0.32-0.151,0.644-0.261,1.056-0.403c0.198-0.068,0.366-0.135,0.555-0.191c1.334-0.402,2.877-0.914,2.877-2.537
		c0-1.627-1.322-2.292-2.77-2.791c-0.009,0.517-0.025,1.273-0.037,1.794c0.612,0.24,1.016,0.531,1.016,0.996
		c0,0.58-0.619,0.914-1.061,1.084c-0.181,0.072-0.462,0.164-0.539,0.189c-0.355,0.108-0.736,0.238-1.091,0.369
		c-0.19,0.068-0.372,0.146-0.541,0.232C24.059,27.238,23.41,27.705,23.414,28.527"/>
	<path clip-path="url(#SVGID_2_)" fill="#FFFFFF" stroke="#010102" stroke-width="0.5" d="M24.318,8.811
		c-0.887,0.254-1.41,0.587-1.607,0.654c-0.577,0.191-1.387,0.225-2.225,1.137c-0.149,0.162-0.512,0.619-0.77,0.992
		c-0.252,0.365-0.263,0.949-0.449,1.263c-0.269,0.456-0.203,0.715-0.203,0.715l0.006,0.014c-0.008,0.057-0.063,0.297-0.307,0.57
		c-0.281,0.311-0.648,0.483-1.088,0.412c0.381,0.192,0.909-0.074,0.909-0.074s-0.1,0.287-0.202,0.758
		c0.43-0.971,0.821-1.324,0.944-1.422c0.185,0.043,0.566,0.024,1.273-0.381c0.801-0.459,2.004-1.209,2.344-1.683
		c0.367-0.51,0.873-0.848,1.418-1.069C24.345,9.982,24.333,9.346,24.318,8.811 M20.941,11.836l-0.412,0.09l0.494-0.809l0.578,0.018
		L20.941,11.836z"/>
	<path clip-path="url(#SVGID_2_)" fill="#FFFFFF" stroke="#010102" stroke-width="0.5" d="M25.971,28.416
		c-0.078,0.027-0.277,0.113-0.404,0.158c-0.135,0.047-0.305,0.115-0.305,0.162c0.002,0.014,0.129,6.994,0.129,7.148
		c0,1.438,0.734,1.445,0.734,0c0-0.104,0.147-7.568,0.147-7.568S26.094,28.371,25.971,28.416"/>
	<path clip-path="url(#SVGID_2_)" fill="#FFFFFF" stroke="#010102" stroke-width="0.5" d="M25.213,26.113
		c0.229-0.08,0.455-0.15,0.666-0.215c0.16-0.049,0.307-0.096,0.443-0.141c0.01-0.438,0.133-6.514,0.157-7.62
		c-0.545,0.137-1.022,0.264-1.412,0.409C25.082,19.375,25.201,25.449,25.213,26.113"/>
	<path clip-path="url(#SVGID_2_)" fill="#FFFFFF" stroke="#010102" stroke-width="0.5" d="M25.822,2.846
		c-2.055,0-1.182,3.051-1.02,4.045c0.008,0.047,0.168,6.889,0.2,8.459c0.312-0.082,0.621-0.158,0.922-0.233
		c0.216-0.052,0.423-0.103,0.621-0.156c0.033-1.51,0.183-8.041,0.189-8.084C26.855,5.815,27.933,2.846,25.822,2.846"/>
	<polygon clip-path="url(#SVGID_2_)" fill="#FFFFFF" stroke="#FFFFFF" stroke-width="0.5" points="59.43,12.568 59.401,12.568 
		57.659,22.076 55.268,22.076 53.034,10.472 54.934,10.472 56.487,19.417 56.518,19.417 58.18,10.472 60.651,10.472 62.297,19.417 
		62.328,19.417 63.944,10.472 65.78,10.472 63.5,22.076 61.078,22.076 	"/>
	<path clip-path="url(#SVGID_2_)" fill="#FFFFFF" stroke="#FFFFFF" stroke-width="0.5" d="M69.154,13.383
		c1.66,0,3.578,0.912,3.578,4.404c0,3.592-1.918,4.422-3.578,4.422c-1.664,0-3.594-0.83-3.594-4.422
		C65.56,14.295,67.49,13.383,69.154,13.383 M69.154,20.746c1.266,0,1.551-1.529,1.551-2.959c0-1.432-0.285-2.943-1.551-2.943
		c-1.268,0-1.568,1.511-1.568,2.943C67.586,19.217,67.887,20.746,69.154,20.746"/>
	<path clip-path="url(#SVGID_2_)" fill="#FFFFFF" stroke="#FFFFFF" stroke-width="0.5" d="M73.951,14.928
		c0-0.533-0.016-1.031-0.062-1.412h1.772c0.014,0.514,0.063,1.045,0.063,1.562h0.031c0.238-0.666,0.855-1.695,2.074-1.695
		c0.129,0,0.223,0.033,0.334,0.049v1.928c-0.176-0.051-0.35-0.084-0.557-0.084c-0.807,0-1.693,0.517-1.693,2.111v4.689h-1.963
		V14.928z"/>
	
		<rect x="79.4" y="9.607" clip-path="url(#SVGID_2_)" fill="#FFFFFF" stroke="#FFFFFF" stroke-width="0.5" width="1.965" height="12.469"/>
	<path clip-path="url(#SVGID_2_)" fill="#FFFFFF" stroke="#FFFFFF" stroke-width="0.5" d="M89.559,9.607v11.006
		c0,0.615,0.016,1.146,0.063,1.463h-1.836c-0.033-0.25-0.064-0.748-0.064-1.33h-0.047c-0.318,0.73-0.904,1.463-2.17,1.463
		c-2.027,0-2.867-2.03-2.867-4.407c0-2.793,1.063-4.419,2.82-4.419c1.172,0,1.818,0.697,2.106,1.361h0.03V9.607H89.559z
		 M86.043,20.695c1.156,0,1.551-1.312,1.551-2.926c0-1.662-0.443-2.875-1.52-2.875c-1.093,0-1.475,1.114-1.475,2.826
		C84.6,19.699,84.9,20.695,86.043,20.695"/>
	<polygon clip-path="url(#SVGID_2_)" fill="#FFFFFF" stroke="#FFFFFF" stroke-width="0.5" points="96.025,10.473 98.053,10.473 
		98.053,15.194 101.332,15.194 101.332,10.473 103.357,10.473 103.357,22.077 101.332,22.077 101.332,16.955 98.053,16.955 
		98.053,22.077 96.025,22.077 	"/>
	<path clip-path="url(#SVGID_2_)" fill="#FFFFFF" stroke="#FFFFFF" stroke-width="0.5" d="M110.877,21.66
		c-0.41,0.184-1.266,0.549-2.436,0.549c-2.631,0-3.77-1.978-3.77-4.289c0-2.56,1.283-4.537,3.357-4.537
		c1.756,0,3.26,1.078,3.26,4.57v0.399h-4.717c0,1.465,0.555,2.346,2.074,2.346c1.203,0,1.771-0.383,2.137-0.666L110.877,21.66z
		 M109.391,17.055c0-1.512-0.475-2.277-1.361-2.277c-1.029,0-1.457,1.146-1.457,2.277H109.391z"/>
	<path clip-path="url(#SVGID_2_)" fill="#FFFFFF" stroke="#FFFFFF" stroke-width="0.5" d="M113.047,14.012
		c0.555-0.264,1.33-0.629,2.582-0.629c2.533,0,3.117,1.295,3.117,3.44v3.742c0,0.613,0.066,1.179,0.113,1.511h-1.775
		c-0.094-0.332-0.109-0.748-0.109-1.164h-0.031c-0.492,0.7-1.109,1.297-2.281,1.297c-1.266,0-2.438-0.914-2.438-2.51
		c0-2.328,1.805-2.91,4.291-2.91h0.395v-0.316c0-0.848-0.395-1.629-1.52-1.629c-0.98,0-1.852,0.498-2.232,0.832L113.047,14.012z
		 M116.91,17.887h-0.174c-1.678,0-2.676,0.365-2.676,1.611c0,0.784,0.492,1.315,1.252,1.315c1.172,0,1.598-0.914,1.598-2.444V17.887
		z"/>
	
		<rect x="120.68" y="9.607" clip-path="url(#SVGID_2_)" fill="#FFFFFF" stroke="#FFFFFF" stroke-width="0.5" width="1.965" height="12.469"/>
	<path clip-path="url(#SVGID_2_)" fill="#FFFFFF" stroke="#FFFFFF" stroke-width="0.5" d="M125.098,11.752l1.963-0.631v2.395h1.631
		v1.511h-1.631v4.44c0,0.914,0.316,1.18,0.887,1.18c0.348,0,0.602-0.1,0.744-0.182v1.463c-0.301,0.148-0.729,0.281-1.314,0.281
		c-1.457,0-2.279-0.697-2.279-2.492v-4.69h-1.297v-1.511h1.297V11.752z"/>
	<path clip-path="url(#SVGID_2_)" fill="#FFFFFF" stroke="#FFFFFF" stroke-width="0.5" d="M129.705,9.607h1.963v5.004h0.049
		c0.348-0.533,0.807-1.229,2.025-1.229c1.854,0,2.406,1.444,2.406,3.174v5.52h-1.963v-5.137c0-1.312-0.316-1.863-1.123-1.863
		c-1.031,0-1.395,0.914-1.395,2.013v4.987h-1.963V9.607z"/>
	<path clip-path="url(#SVGID_2_)" fill="#FFFFFF" stroke="#FFFFFF" stroke-width="0.5" d="M57.357,25.164
		c2.295,0,4.4,1.797,4.4,5.969c0,4.174-2.105,5.969-4.4,5.969c-2.297,0-4.402-1.795-4.402-5.969
		C52.956,26.961,55.061,25.164,57.357,25.164 M57.357,35.473c1.281,0,2.311-1.146,2.311-4.34c0-3.191-1.03-4.338-2.311-4.338
		c-1.283,0-2.313,1.146-2.313,4.338C55.044,34.327,56.074,35.473,57.357,35.473"/>
	<path clip-path="url(#SVGID_2_)" fill="#FFFFFF" stroke="#FFFFFF" stroke-width="0.5" d="M63.082,29.787
		c0-0.533-0.018-1.031-0.064-1.414h1.773c0.016,0.516,0.062,1.049,0.062,1.563h0.034c0.236-0.664,0.855-1.695,2.074-1.695
		c0.127,0,0.221,0.033,0.332,0.051v1.928c-0.174-0.049-0.348-0.082-0.555-0.082c-0.806,0-1.693,0.516-1.693,2.111v4.688h-1.963
		V29.787z"/>
	<path clip-path="url(#SVGID_2_)" fill="#FFFFFF" stroke="#FFFFFF" stroke-width="0.5" d="M68.51,38.266
		c0.459,0.266,1.379,0.732,2.409,0.732c1.851,0,2.153-1.348,2.153-2.693v-0.816h-0.033c-0.316,0.665-0.87,1.447-2.152,1.447
		c-1.141,0-2.852-0.797-2.852-4.256c0-2.361,0.809-4.439,2.945-4.439c1.188,0,1.742,0.717,2.154,1.465h0.064
		c0-0.451,0.047-0.883,0.063-1.33h1.773c-0.031,0.447-0.064,0.896-0.064,1.346v6.318c0,2.676-0.775,4.588-3.768,4.588
		c-1.299,0-2.327-0.35-2.803-0.531L68.51,38.266z M71.564,35.424c1.234,0,1.727-0.932,1.727-2.877c0-1.795-0.65-2.76-1.584-2.744
		c-1.029,0.017-1.424,1.014-1.424,2.76C70.283,34.574,70.9,35.424,71.564,35.424"/>
	<path clip-path="url(#SVGID_2_)" fill="#FFFFFF" stroke="#FFFFFF" stroke-width="0.5" d="M77.094,28.873
		c0.557-0.266,1.332-0.633,2.582-0.633c2.533,0,3.119,1.297,3.119,3.441v3.742c0,0.613,0.064,1.18,0.111,1.512h-1.773
		c-0.096-0.332-0.111-0.748-0.111-1.164H80.99c-0.49,0.699-1.109,1.299-2.279,1.299c-1.268,0-2.438-0.916-2.438-2.513
		c0-2.325,1.804-2.907,4.291-2.907h0.396v-0.316c0-0.848-0.396-1.631-1.52-1.631c-0.982,0-1.854,0.5-2.232,0.832L77.094,28.873z
		 M80.959,32.746h-0.174c-1.678,0-2.676,0.367-2.676,1.613c0,0.781,0.49,1.313,1.25,1.313c1.172,0,1.6-0.914,1.6-2.443V32.746z"/>
	<path clip-path="url(#SVGID_2_)" fill="#FFFFFF" stroke="#FFFFFF" stroke-width="0.5" d="M84.775,29.787
		c0-0.533-0.018-1.031-0.064-1.414h1.836c0.018,0.434,0.064,0.881,0.064,1.314h0.047h-0.016c0.285-0.516,0.84-1.447,2.17-1.447
		c1.854,0,2.408,1.447,2.408,3.176v5.52h-1.965v-5.137c0-1.313-0.316-1.863-1.125-1.863c-1.029,0-1.393,0.913-1.393,2.014v4.986
		h-1.963V29.787z"/>
	<path clip-path="url(#SVGID_2_)" fill="#FFFFFF" stroke="#FFFFFF" stroke-width="0.5" d="M92.988,24.732h2.026v2.028h-2.026V24.732
		z M93.021,28.373h1.963v8.563h-1.963V28.373z"/>
	<polygon clip-path="url(#SVGID_2_)" fill="#FFFFFF" stroke="#FFFFFF" stroke-width="0.5" points="96.811,35.156 100.295,29.938 
		96.922,29.938 96.922,28.373 102.26,28.373 102.26,30.136 98.84,35.373 102.369,35.373 102.369,36.936 96.811,36.936 	"/>
	<path clip-path="url(#SVGID_2_)" fill="#FFFFFF" stroke="#FFFFFF" stroke-width="0.5" d="M104.229,28.873
		c0.553-0.266,1.33-0.633,2.58-0.633c2.533,0,3.119,1.297,3.119,3.441v3.742c0,0.613,0.064,1.18,0.111,1.512h-1.771
		c-0.098-0.332-0.114-0.748-0.114-1.164h-0.03c-0.49,0.699-1.107,1.299-2.279,1.299c-1.268,0-2.438-0.916-2.438-2.513
		c0-2.325,1.804-2.907,4.29-2.907h0.396v-0.316c0-0.848-0.396-1.631-1.52-1.631c-0.982,0-1.854,0.5-2.232,0.832L104.229,28.873z
		 M108.092,32.746h-0.174c-1.68,0-2.676,0.367-2.676,1.613c0,0.781,0.49,1.313,1.25,1.313c1.172,0,1.6-0.914,1.6-2.443V32.746z"/>
	<path clip-path="url(#SVGID_2_)" fill="#FFFFFF" stroke="#FFFFFF" stroke-width="0.5" d="M112.186,26.611l1.963-0.631v2.393h1.633
		v1.514h-1.633v4.439c0,0.914,0.318,1.18,0.887,1.18c0.35,0,0.604-0.1,0.746-0.182v1.461c-0.303,0.15-0.729,0.283-1.314,0.283
		c-1.457,0-2.281-0.697-2.281-2.494v-4.688h-1.299v-1.514h1.299V26.611z"/>
	<path clip-path="url(#SVGID_2_)" fill="#FFFFFF" stroke="#FFFFFF" stroke-width="0.5" d="M117.129,24.732h2.027v2.028h-2.027
		V24.732z M117.379,28.373h1.963v8.563h-1.963V28.373z"/>
	<path clip-path="url(#SVGID_2_)" fill="#FFFFFF" stroke="#FFFFFF" stroke-width="0.5" d="M124.441,28.24
		c1.662,0,3.578,0.916,3.578,4.408c0,3.59-1.916,4.422-3.578,4.422s-3.596-0.832-3.596-4.422
		C120.846,29.156,122.779,28.24,124.441,28.24 M124.441,35.607c1.266,0,1.553-1.531,1.553-2.959c0-1.432-0.287-2.945-1.553-2.945
		c-1.268,0-1.566,1.514-1.566,2.945C122.875,34.076,123.174,35.607,124.441,35.607"/>
	<path clip-path="url(#SVGID_2_)" fill="#FFFFFF" stroke="#FFFFFF" stroke-width="0.5" d="M129.73,29.787
		c0-0.533-0.018-1.031-0.064-1.414h1.838c0.014,0.434,0.063,0.881,0.063,1.314h0.047h-0.016c0.285-0.516,0.84-1.447,2.17-1.447
		c1.852,0,2.406,1.447,2.406,3.176v5.52h-1.963v-5.137c0-1.313-0.316-1.863-1.125-1.863c-1.029,0-1.393,0.913-1.393,2.014v4.986
		h-1.963V29.787z"/>
	<use xlink:href="#SVGID_1_"  overflow="visible" fill="none" stroke="#FFFFFF" stroke-width="0.5"/>
</g>
</svg>
